<svg id="Layer_1" data-name="Layer 1" xmlns="http://www.w3.org/2000/svg" viewBox="0 0 1000 1000"><defs><style>.cls-1{fill:#0a364f;}</style></defs><path class="cls-1" d="M346.46,278.26,371.15,307V496H627.88V307l24.7-28.77a1,1,0,0,0-.77-1.67H347.23A1,1,0,0,0,346.46,278.26Zm148,207.66H381.25V310.22H494.46Zm123.33,0H504.55V310.22H617.79Zm2.72-185.8h-242L367,286.69H632.05Z"/><path class="cls-1" d="M474.55,472.49H401.17V327.71h73.38Zm-63.29-10.1h53.19V337.81H411.26Z"/><path class="cls-1" d="M597.87,472.49H524.49V327.71h73.38Zm-63.29-10.1h53.19V337.81H534.58Z"/><circle class="cls-1" cx="514.53" cy="400.1" r="5.07"/><circle class="cls-1" cx="484.51" cy="400.1" r="5.07"/><path class="cls-1" d="M337.15,496H106.93a5,5,0,0,1,0-10.1H337.15a5,5,0,1,1,0,10.1Z"/><path class="cls-1" d="M892.11,496H661.88a5,5,0,1,1,0-10.1H892.11a5.05,5.05,0,0,1,0,10.1Z"/><path class="cls-1" d="M126.62,685.48a26.28,26.28,0,0,1-9.44-1.66,22,22,0,0,1-12.55-12,24.15,24.15,0,0,1,0-18.2,21.93,21.93,0,0,1,5-7.21,22.66,22.66,0,0,1,7.59-4.74A28,28,0,0,1,137,642a20.14,20.14,0,0,1,7.78,5.81l-6.59,6a15,15,0,0,0-5-3.89,14,14,0,0,0-6.05-1.32,15,15,0,0,0-5.65,1,13,13,0,0,0-7.37,7.37,16.34,16.34,0,0,0,0,11.42,13.09,13.09,0,0,0,7.37,7.37,15,15,0,0,0,5.65,1,13.71,13.71,0,0,0,6.05-1.34,15.34,15.34,0,0,0,5-3.92l6.59,6a20.39,20.39,0,0,1-7.78,5.83A26,26,0,0,1,126.62,685.48Z"/><path class="cls-1" d="M145.76,684.73l19.51-43.92h10L195,684.73H184.34L168.22,646h4.08l-16.13,38.78Zm9.85-9.41,2.57-7.72h22.71l2.64,7.72Z"/><path class="cls-1" d="M199.59,684.73V640.81h21.46q8.28,0,12.45,3.14a9.86,9.86,0,0,1,4.17,8.28,10.53,10.53,0,0,1-1.69,6,11.08,11.08,0,0,1-4.68,3.92,15.83,15.83,0,0,1-6.74,1.38l1.19-2.63a18.16,18.16,0,0,1,7.31,1.38,11.5,11.5,0,0,1,5,4,11.12,11.12,0,0,1,1.82,6.46,10.21,10.21,0,0,1-4.46,8.82q-4.46,3.16-13.11,3.17Zm10.1-7.66h11.92a11.23,11.23,0,0,0,6-1.31,4.5,4.5,0,0,0,2.07-4.08,4.54,4.54,0,0,0-2.07-4.14,11.13,11.13,0,0,0-6-1.32H208.94v-7.4h10.85a10.41,10.41,0,0,0,5.68-1.29,4.36,4.36,0,0,0,2-3.92,4.28,4.28,0,0,0-2-3.89,10.6,10.6,0,0,0-5.68-1.26h-10.1Z"/><path class="cls-1" d="M247.58,684.73V640.81h10.23v43.92Z"/><path class="cls-1" d="M268.16,684.73V640.81h8.41l25.91,31.62H298.4V640.81h10v43.92H300l-25.91-31.62h4.08v31.62Z"/><path class="cls-1" d="M329,676.57h23.9v8.16h-34V640.81H352V649H329Zm-.76-18.13h21.15v8H328.2Z"/><path class="cls-1" d="M370.05,684.73V649.09H356v-8.28h38.28v8.28H380.21v35.64Z"/><path class="cls-1" d="M417.48,684.73V640.81h19a24.76,24.76,0,0,1,10.16,1.91,14.93,14.93,0,0,1,6.59,5.49,16.69,16.69,0,0,1,0,17,14.54,14.54,0,0,1-6.59,5.39,25.29,25.29,0,0,1-10.16,1.85H423.06l4.65-4.39v16.69Zm10.23-15.56-4.65-4.83h12.86q4.65,0,7-2a7,7,0,0,0,2.39-5.65,6.89,6.89,0,0,0-2.39-5.61q-2.38-2-7-2H423.06l4.65-4.83Zm17.75,15.56-11-15.94h10.92l11,15.94Z"/><path class="cls-1" d="M473.76,676.57h23.9v8.16h-34V640.81h33.19V649H473.76ZM473,658.44h21.15v8H473Z"/><path class="cls-1" d="M516,684.73H505.75V640.81h33.19V649H516Zm-.82-24.16h21.08v8.16H515.16Z"/><path class="cls-1" d="M540.07,684.73l19.51-43.92h10l19.7,43.92H578.65L562.53,646h4.08l-16.13,38.78Zm9.85-9.41,2.57-7.72H575.2l2.64,7.72Z"/><path class="cls-1" d="M614.92,685.48a26.29,26.29,0,0,1-9.45-1.66,22.34,22.34,0,0,1-7.56-4.74,22,22,0,0,1-5-7.21,24,24,0,0,1,0-18.2,21.75,21.75,0,0,1,5-7.21,22.61,22.61,0,0,1,7.6-4.74,27.93,27.93,0,0,1,19.79.31,20.07,20.07,0,0,1,7.78,5.81l-6.59,6a15,15,0,0,0-5-3.89,14,14,0,0,0-6.06-1.32,15,15,0,0,0-5.65,1,13,13,0,0,0-7.37,7.37,16.34,16.34,0,0,0,0,11.42,13.24,13.24,0,0,0,2.92,4.45,13.09,13.09,0,0,0,4.45,2.92,15,15,0,0,0,5.65,1,13.75,13.75,0,0,0,6.06-1.34,15.41,15.41,0,0,0,5-3.92l6.59,6a20.31,20.31,0,0,1-7.78,5.83A26,26,0,0,1,614.92,685.48Z"/><path class="cls-1" d="M639.82,684.73V640.81h10.23v43.92Z"/><path class="cls-1" d="M660.4,684.73V640.81h8.41l25.91,31.62h-4.08V640.81h10v43.92h-8.41l-25.91-31.62h4.08v31.62Z"/><path class="cls-1" d="M732.3,685.48a26.89,26.89,0,0,1-9.6-1.66,21.91,21.91,0,0,1-12.58-12,24,24,0,0,1,0-18.2,21.57,21.57,0,0,1,5-7.21,22.87,22.87,0,0,1,7.66-4.74,27,27,0,0,1,9.66-1.66A27.26,27.26,0,0,1,743,642a20.84,20.84,0,0,1,7.87,5.65l-6.46,6a16.16,16.16,0,0,0-5.27-3.79,15.4,15.4,0,0,0-6.21-1.23,15.68,15.68,0,0,0-5.78,1,13.4,13.4,0,0,0-4.54,2.91,12.92,12.92,0,0,0-3,4.46,15.19,15.19,0,0,0-1,5.71,15,15,0,0,0,1,5.61,12.76,12.76,0,0,0,3,4.49,13.73,13.73,0,0,0,4.51,3,15,15,0,0,0,5.74,1.06,16.87,16.87,0,0,0,11.42-4.32l5.78,7.34a26.07,26.07,0,0,1-8.35,4.17A32.63,32.63,0,0,1,732.3,685.48Zm8.47-6.9v-16.5h9.29V679.9Z"/><path class="cls-1" d="M777.22,684.73V640.81h10.23v35.64h21.89v8.28Z"/><path class="cls-1" d="M824.27,684.73V649.09h-14v-8.28h38.27v8.28h-14v35.64Z"/><path class="cls-1" d="M854,684.73V640.81H873.9a27.83,27.83,0,0,1,12.61,2.73,20.77,20.77,0,0,1,8.53,7.65,23.29,23.29,0,0,1,0,23.15,20.72,20.72,0,0,1-8.53,7.66,27.83,27.83,0,0,1-12.61,2.73Zm10.23-8.28h9.22a16.46,16.46,0,0,0,7.62-1.67,12,12,0,0,0,5-4.76,15.64,15.64,0,0,0,0-14.53,12.09,12.09,0,0,0-5-4.74,16.59,16.59,0,0,0-7.62-1.66h-9.22Z"/><path class="cls-1" d="M111.88,612.38a16.4,16.4,0,0,0,3.66-6.5,22.66,22.66,0,0,0,1.11-6.27V536.32a22.66,22.66,0,0,0-1.11-6.28,16.37,16.37,0,0,0-3.66-6.49h29A16.37,16.37,0,0,0,137.2,530a22.66,22.66,0,0,0-1.11,6.28v63.29a22.66,22.66,0,0,0,1.11,6.27,16.4,16.4,0,0,0,3.66,6.5Z"/><path class="cls-1" d="M159.3,612.38a14.25,14.25,0,0,0,3.49-6,21.39,21.39,0,0,0,1.28-6.33V535.87a21.45,21.45,0,0,0-1.28-6.33,14.14,14.14,0,0,0-3.49-6h26.42a6,6,0,0,0-1.22,3.33,7.41,7.41,0,0,0,1,3.44L205,561.08l19.32-30.54a8.1,8.1,0,0,0,1.11-3.66,5.9,5.9,0,0,0-1.22-3.33h26.54a14.18,14.18,0,0,0-3.5,6.16,22.56,22.56,0,0,0-1.27,6.16v64.18a22,22,0,0,0,1.27,6.22,14.22,14.22,0,0,0,3.5,6.11h-29a14.24,14.24,0,0,0,3.5-6.16,22.72,22.72,0,0,0,1.28-6.17V561.41L205,594.5,183.5,561.41v38.64a22.1,22.1,0,0,0,1.28,6.22,14.12,14.12,0,0,0,3.5,6.11Z"/><path class="cls-1" d="M270.22,612.38a16.3,16.3,0,0,0,3.67-6.5,22.66,22.66,0,0,0,1.11-6.27V536.32a22.66,22.66,0,0,0-1.11-6.28,16.27,16.27,0,0,0-3.67-6.49h36.31A34.15,34.15,0,0,1,323,527.43a29.72,29.72,0,0,1,11.27,10.33,25.42,25.42,0,0,1,4.05,13.77v.33q0,10.89-4.89,18.43t-16.65,11.44L294.43,589v10.66a22.66,22.66,0,0,0,1.11,6.27,16.3,16.3,0,0,0,3.67,6.5Zm39.31-47.3a11.68,11.68,0,0,0,7.11-4.78,13.1,13.1,0,0,0,2.22-7.22v-.55a10,10,0,0,0-3.17-7.78,11.66,11.66,0,0,0-8.16-2.88h-13.1v27.2Z"/><path class="cls-1" d="M354.5,612.38a18.47,18.47,0,0,0,4.78-12.77V536.32a25.65,25.65,0,0,0-1.33-6.17,16.43,16.43,0,0,0-3.45-6.6h36.31a34.15,34.15,0,0,1,16.44,3.88,29.72,29.72,0,0,1,11.27,10.33,25.42,25.42,0,0,1,4.05,13.77v.33a37,37,0,0,1-3.44,16.38q-3.45,7.05-12.77,11.38l5.33,10.88q4.67,8.44,8.49,14a22.7,22.7,0,0,0,8.72,7.88H396.7A4.87,4.87,0,0,0,398,608.6a11.94,11.94,0,0,0-.67-4.22l-9.21-18.54L378.71,589v10.66a20.59,20.59,0,0,0,1.05,6.72,18.29,18.29,0,0,0,3.73,6Zm39.31-47.3a12.93,12.93,0,0,0,7-4.11,10.49,10.49,0,0,0,2.33-6.78v-1.66a10,10,0,0,0-3.17-7.78,11.66,11.66,0,0,0-8.16-2.88h-13.1v27.2Z"/><path class="cls-1" d="M442.78,612.38a17.92,17.92,0,0,0,4.77-10.55V536.32a18.49,18.49,0,0,0-4.77-12.77h55.3L502,545.76a11.21,11.21,0,0,0-5.44-3.22,33,33,0,0,0-7.33-.67H467v16.76h21.09a36.57,36.57,0,0,0,5.61-.38,13.75,13.75,0,0,0,4.94-1.84v22.77a13.92,13.92,0,0,0-4.94-1.83,34.89,34.89,0,0,0-5.38-.39H467v17.1h26.09a40.15,40.15,0,0,0,7.83-.67,9.12,9.12,0,0,0,5.38-3.22l-4.44,22.21Z"/><path class="cls-1" d="M521.4,607.94V582.06a25.2,25.2,0,0,0,10.38,10.28q6.72,3.6,16.27,3.6a33.29,33.29,0,0,0,11.77-1.88q5-1.89,5-6.11c0-2.52-1.26-4.53-3.77-6.05a75.16,75.16,0,0,0-11.88-5.28,126.08,126.08,0,0,1-14.55-6.33,28.93,28.93,0,0,1-9.77-8.54q-4.11-5.57-4.11-14a23.42,23.42,0,0,1,3.83-12.93,26.24,26.24,0,0,1,11.27-9.44q7.44-3.5,17.88-3.5,15.43,0,24.87,6.44v24.21a29.18,29.18,0,0,0-10.21-8.27,34.54,34.54,0,0,0-12.77-4,24.73,24.73,0,0,0-2.67-.11,18.45,18.45,0,0,0-8.83,1.89,6,6,0,0,0-3.5,5.55,6.55,6.55,0,0,0,2.11,4.83A18.47,18.47,0,0,0,548,556q3.16,1.44,8.83,3.44A127.73,127.73,0,0,1,571,565.35a28.19,28.19,0,0,1,9.6,8.11q4.07,5.28,4.06,13.38a24.48,24.48,0,0,1-4.33,14.32,28.11,28.11,0,0,1-12.27,9.66,46.38,46.38,0,0,1-18.6,3.45Q533.05,614.27,521.4,607.94Z"/><path class="cls-1" d="M599.23,607.94V582.06a25.28,25.28,0,0,0,10.39,10.28q6.71,3.6,16.26,3.6a33.22,33.22,0,0,0,11.77-1.88c3.34-1.26,5-3.3,5-6.11,0-2.52-1.26-4.53-3.77-6.05A74.93,74.93,0,0,0,627,576.62a126.6,126.6,0,0,1-14.54-6.33,28.84,28.84,0,0,1-9.77-8.54q-4.11-5.57-4.11-14a23.34,23.34,0,0,1,3.83-12.93,26.24,26.24,0,0,1,11.27-9.44q7.44-3.5,17.88-3.5,15.42,0,24.87,6.44v24.21a29.12,29.12,0,0,0-10.22-8.27,34.48,34.48,0,0,0-12.77-4,24.38,24.38,0,0,0-2.66-.11,18.45,18.45,0,0,0-8.83,1.89,6,6,0,0,0-3.5,5.55,6.55,6.55,0,0,0,2.11,4.83,18.47,18.47,0,0,0,5.28,3.5q3.17,1.44,8.82,3.44a127.17,127.17,0,0,1,14.22,5.94,28.19,28.19,0,0,1,9.6,8.11q4,5.28,4.06,13.38a24.48,24.48,0,0,1-4.33,14.32,28.11,28.11,0,0,1-12.27,9.66,46.42,46.42,0,0,1-18.6,3.45Q610.89,614.27,599.23,607.94Z"/><path class="cls-1" d="M679.18,612.38a16.55,16.55,0,0,0,3.67-6.5,23,23,0,0,0,1.11-6.27V536.32a23,23,0,0,0-1.11-6.28,16.51,16.51,0,0,0-3.67-6.49h29A16.37,16.37,0,0,0,704.5,530a22.66,22.66,0,0,0-1.11,6.28v63.29a22.66,22.66,0,0,0,1.11,6.27,16.4,16.4,0,0,0,3.66,6.5Z"/><path class="cls-1" d="M751.36,612.38a11,11,0,0,0,1.33-5.66,18.46,18.46,0,0,0-.78-5.22L732,535.32a26.71,26.71,0,0,0-8.21-11.77H753a7,7,0,0,0-1,2.72,20.27,20.27,0,0,0-.06,7.6l14.66,55.74L782,533.1a23.85,23.85,0,0,0,.23-2.78,17.2,17.2,0,0,0-.45-4,7.74,7.74,0,0,0-1.11-2.77h29.2A26.63,26.63,0,0,0,801.1,537L781.34,601.5a18.46,18.46,0,0,0-.78,5.22,10.85,10.85,0,0,0,1.33,5.66Z"/><path class="cls-1" d="M823.65,612.38a17.92,17.92,0,0,0,4.77-10.55V536.32a18.49,18.49,0,0,0-4.77-12.77h55.29l3.89,22.21a11.29,11.29,0,0,0-5.44-3.22,33.09,33.09,0,0,0-7.33-.67H847.85v16.76H869a36.75,36.75,0,0,0,5.61-.38,13.82,13.82,0,0,0,4.94-1.84v22.77a14,14,0,0,0-4.94-1.83,35.11,35.11,0,0,0-5.39-.39H847.85v17.1H874a40,40,0,0,0,7.82-.67,9.15,9.15,0,0,0,5.39-3.22l-4.44,22.21Z"/><path class="cls-1" d="M161.66,458.72a23.58,23.58,0,0,1-7.11-1.06,16,16,0,0,1-5.43-2.75l2-4.59a16.54,16.54,0,0,0,4.72,2.5,17,17,0,0,0,5.77,1,12.24,12.24,0,0,0,4.05-.55A4.88,4.88,0,0,0,168,451.8a3.38,3.38,0,0,0,.72-2.12,2.91,2.91,0,0,0-1-2.34,7.64,7.64,0,0,0-2.7-1.4q-1.67-.53-3.69-1c-1.34-.29-2.69-.64-4-1.07a18,18,0,0,1-3.7-1.61,7.28,7.28,0,0,1-3.73-6.79,8.65,8.65,0,0,1,1.39-4.75,9.49,9.49,0,0,1,4.22-3.45,17.35,17.35,0,0,1,7.21-1.3,22.93,22.93,0,0,1,5.68.73,16.29,16.29,0,0,1,4.9,2.09l-1.86,4.59a17.52,17.52,0,0,0-4.41-1.89,16.65,16.65,0,0,0-4.36-.61,11.26,11.26,0,0,0-3.95.59,4.77,4.77,0,0,0-2.25,1.57,3.61,3.61,0,0,0-.71,2.16,2.94,2.94,0,0,0,1,2.34,7.13,7.13,0,0,0,2.68,1.38c1.1.34,2.34.65,3.7,1s2.71.67,4,1.07a17.47,17.47,0,0,1,3.68,1.59,7.91,7.91,0,0,1,2.71,2.59,7.59,7.59,0,0,1,1,4.11,8.51,8.51,0,0,1-1.39,4.71,9.5,9.5,0,0,1-4.24,3.45A17.65,17.65,0,0,1,161.66,458.72Z"/><path class="cls-1" d="M181.52,458.27v-31.8h5.9v31.8Z"/><path class="cls-1" d="M197.1,458.27v-31.8H202L221.91,451H219.5V426.47h5.82v31.8h-4.87l-19.9-24.53H203v24.53Z"/><path class="cls-1" d="M249.76,458.72a18.52,18.52,0,0,1-6.77-1.2,15.87,15.87,0,0,1-9-8.61,17.47,17.47,0,0,1,0-13.08,15.66,15.66,0,0,1,3.59-5.18,16,16,0,0,1,5.4-3.43,19.62,19.62,0,0,1,13.91.13,14.21,14.21,0,0,1,5.45,4l-3.82,3.59a12,12,0,0,0-3.91-2.8,11.33,11.33,0,0,0-4.58-.93,12.23,12.23,0,0,0-4.57.82,10.48,10.48,0,0,0-3.59,2.32,10.82,10.82,0,0,0-2.38,3.54,12.07,12.07,0,0,0,0,9,10.82,10.82,0,0,0,2.38,3.54,10.63,10.63,0,0,0,3.59,2.32,12.43,12.43,0,0,0,4.57.82,11.17,11.17,0,0,0,4.58-.94,11.42,11.42,0,0,0,3.91-2.84l3.82,3.59a14.36,14.36,0,0,1-5.45,4A18.27,18.27,0,0,1,249.76,458.72Z"/><path class="cls-1" d="M275.11,453.27h17.95v5H269.2v-31.8h23.22v5H275.11Zm-.45-13.58h15.81v4.86H274.66Z"/><path class="cls-1" d="M718.68,458.27v-3.95l12.68-12a18,18,0,0,0,2.31-2.63,7.25,7.25,0,0,0,1.05-2.11,7,7,0,0,0,.27-1.84,4.08,4.08,0,0,0-1.52-3.39,7.14,7.14,0,0,0-4.48-1.2,10.21,10.21,0,0,0-4.15.82,8.62,8.62,0,0,0-3.25,2.45l-4.14-3.14a12.27,12.27,0,0,1,5-3.88,17.49,17.49,0,0,1,7.07-1.39,14.77,14.77,0,0,1,6,1.12,9.11,9.11,0,0,1,4,3.15,8.29,8.29,0,0,1,1.41,4.82,12,12,0,0,1-.41,3.11,11,11,0,0,1-1.55,3.23,23.54,23.54,0,0,1-3.31,3.79L724.72,455.5l-1.22-2.23h18.62v5Z"/><path class="cls-1" d="M760,458.72a12.46,12.46,0,0,1-6.82-1.9,13.07,13.07,0,0,1-4.74-5.57,23.4,23.4,0,0,1,0-17.76,13.07,13.07,0,0,1,4.74-5.57,13,13,0,0,1,13.59,0,13.09,13.09,0,0,1,4.75,5.57,23.4,23.4,0,0,1,0,17.76,13.09,13.09,0,0,1-4.75,5.57A12.37,12.37,0,0,1,760,458.72Zm0-5.13a6.3,6.3,0,0,0,3.82-1.2,7.83,7.83,0,0,0,2.56-3.7,21.94,21.94,0,0,0,0-12.64,7.83,7.83,0,0,0-2.56-3.7,6.3,6.3,0,0,0-3.82-1.2,6.4,6.4,0,0,0-3.84,1.2,8,8,0,0,0-2.61,3.7,21.28,21.28,0,0,0,0,12.64,8,8,0,0,0,2.61,3.7A6.4,6.4,0,0,0,760,453.59Z"/><path class="cls-1" d="M791.69,458.72a12.43,12.43,0,0,1-6.81-1.9,13,13,0,0,1-4.75-5.57,23.4,23.4,0,0,1,0-17.76,13,13,0,0,1,4.75-5.57,13,13,0,0,1,13.58,0,13,13,0,0,1,4.75,5.57,23.4,23.4,0,0,1,0,17.76,13,13,0,0,1-4.75,5.57A12.34,12.34,0,0,1,791.69,458.72Zm0-5.13a6.28,6.28,0,0,0,3.82-1.2,7.84,7.84,0,0,0,2.57-3.7,21.94,21.94,0,0,0,0-12.64,7.84,7.84,0,0,0-2.57-3.7,6.28,6.28,0,0,0-3.82-1.2,6.4,6.4,0,0,0-3.84,1.2,8,8,0,0,0-2.61,3.7,21.5,21.5,0,0,0,0,12.64,8,8,0,0,0,2.61,3.7A6.4,6.4,0,0,0,791.69,453.59Z"/><path class="cls-1" d="M815.45,458.27l13.09-29.48,1.54,2.67h-18l2.81-2.86v8.27h-5.49v-10.4h24.71v3.95l-12.36,27.85Z"/><path class="cls-1" d="M897.15,723.41H102.85a5,5,0,1,1,0-10.1h794.3a5.05,5.05,0,0,1,0,10.1Z"/></svg>